<?xml version="1.0" encoding="utf-8"?>
<!-- Generator: Adobe Illustrator 22.0.0, SVG Export Plug-In . SVG Version: 6.00 Build 0)  -->
<svg version="1.1" xmlns="http://www.w3.org/2000/svg" xmlns:xlink="http://www.w3.org/1999/xlink" x="0px" y="0px"
	 viewBox="0 0 256 256" style="enable-background:new 0 0 256 256;" xml:space="preserve">
<style type="text/css">
	.st0{display:none;}
	.st1{display:inline;}
	.st2{fill:none;stroke:#6B1D1D;stroke-width:0.5;stroke-miterlimit:10;}
	.st3{fill:#3A312A;}
	.st4{fill:#87796F;}
	.st5{fill:#D5DE58;}
	.st6{fill:#695B51;}
	.st7{fill:#FCE8CB;}
	.st8{fill:#F16C7A;}
	.st9{fill:#8AC6DD;}
	.st10{fill:#DECAAD;}
	.st11{fill:#D6DF58;}
	.st12{fill-rule:evenodd;clip-rule:evenodd;fill:#FCE8CB;}
	.st13{fill:#F5978A;}
	.st14{fill:#D7E057;}
	.st15{fill-rule:evenodd;clip-rule:evenodd;fill:#87796F;}
	.st16{fill:#6CA8BF;}
	.st17{fill:#B9C239;}
	.st18{fill:#D34E5C;}
	.st19{fill:#FAE6CA;}
	.st20{fill:#F8E4C8;}
	.st21{fill:#8AC5DC;}
	.st22{fill:#EF6D7A;}
	.st23{fill:#EB6E7A;}
	.st24{fill:#89C4DB;}
	.st25{fill-rule:evenodd;clip-rule:evenodd;fill:#F16C7A;}
	.st26{fill:#F7E3C7;}
	.st27{fill:#F6E2C6;}
	.st28{fill:#ED6E7A;}
	.st29{fill:#8AC3DA;}
	.st30{fill:#D5DC57;}
	.st31{fill-rule:evenodd;clip-rule:evenodd;fill:#D7E057;}
	.st32{fill-rule:evenodd;clip-rule:evenodd;fill:#F8E4C8;}
	.st33{fill:#D4DB56;}
	.st34{fill:#F59689;}
	.st35{fill:#DDC9AC;}
	.st36{fill:#D24E5C;}
	.st37{fill:#6A5C52;}
	.st38{fill:#6CA6BE;}
	.st39{fill:#B8C136;}
	.st40{fill-rule:evenodd;clip-rule:evenodd;fill:#FAE6CA;}
</style>
<g id="Layer_2" class="st0">
	<g class="st1">
		<g>
			<line class="st2" x1="0" y1="4.829" x2="256" y2="4.829"/>
			<line class="st2" x1="0" y1="16.56" x2="256" y2="16.56"/>
			<line class="st2" x1="0" y1="28.29" x2="256" y2="28.29"/>
			<line class="st2" x1="0" y1="40.021" x2="256" y2="40.021"/>
			<line class="st2" x1="0" y1="51.751" x2="256" y2="51.751"/>
			<line class="st2" x1="0" y1="63.482" x2="256" y2="63.482"/>
			<line class="st2" x1="0" y1="75.213" x2="256" y2="75.213"/>
			<line class="st2" x1="0" y1="86.943" x2="256" y2="86.943"/>
			<line class="st2" x1="0" y1="98.674" x2="256" y2="98.674"/>
			<line class="st2" x1="0" y1="110.404" x2="256" y2="110.404"/>
			<line class="st2" x1="0" y1="122.135" x2="256" y2="122.135"/>
			<line class="st2" x1="0" y1="133.865" x2="256" y2="133.865"/>
			<line class="st2" x1="0" y1="145.596" x2="256" y2="145.596"/>
			<line class="st2" x1="0" y1="157.326" x2="256" y2="157.326"/>
			<line class="st2" x1="0" y1="169.057" x2="256" y2="169.057"/>
			<line class="st2" x1="0" y1="180.788" x2="256" y2="180.788"/>
			<line class="st2" x1="0" y1="192.518" x2="256" y2="192.518"/>
			<line class="st2" x1="0" y1="204.249" x2="256" y2="204.249"/>
			<line class="st2" x1="0" y1="215.979" x2="256" y2="215.979"/>
			<line class="st2" x1="0" y1="227.71" x2="256" y2="227.71"/>
			<line class="st2" x1="0" y1="239.44" x2="256" y2="239.44"/>
			<line class="st2" x1="0" y1="251.171" x2="256" y2="251.171"/>
		</g>
		<g>
			<line class="st2" x1="251.171" y1="0" x2="251.171" y2="256"/>
			<line class="st2" x1="239.44" y1="0" x2="239.44" y2="256"/>
			<line class="st2" x1="227.71" y1="0" x2="227.71" y2="256"/>
			<line class="st2" x1="215.979" y1="0" x2="215.979" y2="256"/>
			<line class="st2" x1="204.249" y1="0" x2="204.249" y2="256"/>
			<line class="st2" x1="192.518" y1="0" x2="192.518" y2="256"/>
			<line class="st2" x1="180.787" y1="0" x2="180.787" y2="256"/>
			<line class="st2" x1="169.057" y1="0" x2="169.057" y2="256"/>
			<line class="st2" x1="157.326" y1="0" x2="157.326" y2="256"/>
			<line class="st2" x1="145.596" y1="0" x2="145.596" y2="256"/>
			<line class="st2" x1="133.865" y1="0" x2="133.865" y2="256"/>
			<line class="st2" x1="122.135" y1="0" x2="122.135" y2="256"/>
			<line class="st2" x1="110.404" y1="0" x2="110.404" y2="256"/>
			<line class="st2" x1="98.674" y1="0" x2="98.674" y2="256"/>
			<line class="st2" x1="86.943" y1="0" x2="86.943" y2="256"/>
			<line class="st2" x1="75.212" y1="0" x2="75.212" y2="256"/>
			<line class="st2" x1="63.482" y1="0" x2="63.482" y2="256"/>
			<line class="st2" x1="51.751" y1="0" x2="51.751" y2="256"/>
			<line class="st2" x1="40.021" y1="0" x2="40.021" y2="256"/>
			<line class="st2" x1="28.29" y1="0" x2="28.29" y2="256"/>
			<line class="st2" x1="16.56" y1="0" x2="16.56" y2="256"/>
			<line class="st2" x1="4.829" y1="0" x2="4.829" y2="256"/>
		</g>
	</g>
</g>
<g id="Layer_1">
	<g>
		<path class="st3" d="M128,25.323c-0.829,0-1.5-0.672-1.5-1.5v-7.345c0-0.828,0.671-1.5,1.5-1.5c0.829,0,1.5,0.672,1.5,1.5v7.345
			C129.5,24.651,128.829,25.323,128,25.323z"/>
		<path class="st3" d="M158.756,35.533c-0.312,0-0.627-0.097-0.895-0.298c-0.664-0.495-0.801-1.436-0.306-2.099l4.393-5.888
			c0.494-0.666,1.437-0.802,2.099-0.306c0.664,0.495,0.801,1.436,0.306,2.099l-4.393,5.888
			C159.665,35.325,159.213,35.533,158.756,35.533z"/>
		<path class="st3" d="M177.302,62.108c-0.646,0-1.243-0.421-1.437-1.073c-0.236-0.794,0.216-1.629,1.011-1.864l7.041-2.092
			c0.788-0.237,1.629,0.216,1.864,1.011c0.236,0.794-0.216,1.629-1.011,1.864l-7.041,2.092
			C177.588,62.089,177.443,62.108,177.302,62.108z"/>
		<path class="st3" d="M183.17,97.033c-0.172,0-0.347-0.029-0.518-0.092l-6.895-2.534c-0.777-0.286-1.176-1.148-0.891-1.926
			c0.286-0.777,1.147-1.175,1.926-0.891l6.894,2.534c0.777,0.286,1.176,1.148,0.891,1.926
			C184.354,96.657,183.78,97.033,183.17,97.033z"/>
		<path class="st3" d="M97.245,35.533c-0.457,0-0.909-0.208-1.203-0.604l-4.393-5.888c-0.496-0.663-0.359-1.604,0.305-2.099
			c0.663-0.496,1.604-0.359,2.099,0.306l4.393,5.888c0.496,0.663,0.359,1.604-0.305,2.099
			C97.872,35.437,97.557,35.533,97.245,35.533z"/>
		<path class="st3" d="M78.698,62.108c-0.142,0-0.285-0.019-0.428-0.062l-7.041-2.092c-0.794-0.235-1.247-1.07-1.011-1.864
			c0.236-0.795,1.072-1.25,1.865-1.011l7.041,2.092c0.794,0.235,1.247,1.07,1.011,1.864C79.941,61.688,79.345,62.108,78.698,62.108z
			"/>
		<path class="st3" d="M72.83,97.033c-0.611,0-1.185-0.376-1.408-0.982c-0.286-0.777,0.113-1.64,0.89-1.926l6.895-2.534
			c0.778-0.284,1.64,0.114,1.925,0.891c0.286,0.777-0.113,1.64-0.89,1.926l-6.895,2.534C73.177,97.004,73.002,97.033,72.83,97.033z"
			/>
		<path class="st14" d="M162.391,74.084c0,8.731-3.243,16.673-8.606,22.743c-5.052,5.717-8.274,12.764-9.605,20.248h-32.368
			c-1.331-7.484-4.532-14.531-9.604-20.269c-5.343-6.05-8.607-14.012-8.607-22.722c0-18.086,14.49-33.387,32.535-34.343
			C145.968,38.701,162.391,54.48,162.391,74.084z"/>
		<path class="st3" d="M144.18,118.575h-32.368c-0.727,0-1.35-0.521-1.477-1.237c-1.321-7.43-4.52-14.187-9.251-19.538
			C95.29,91.241,92.1,82.818,92.1,74.084c0-18.771,15.232-34.849,33.955-35.841c9.97-0.527,19.428,2.961,26.644,9.809
			c7.217,6.848,11.191,16.093,11.191,26.032c0,8.751-3.19,17.181-8.982,23.736c-4.734,5.357-7.934,12.107-9.252,19.518
			C145.529,118.054,144.907,118.575,144.18,118.575z M113.051,115.575h29.89c1.54-7.468,4.886-14.271,9.72-19.741
			c5.308-6.007,8.23-13.731,8.23-21.75c0-9.107-3.643-17.58-10.257-23.856c-6.613-6.275-15.297-9.459-24.42-8.988
			C109.058,42.148,95.1,56.882,95.1,74.084c0,8.003,2.923,15.72,8.231,21.729C108.163,101.278,111.508,108.089,113.051,115.575z"/>
		<path class="st4" d="M108.685,117.084h38.63c1.68,0,3.042,1.362,3.042,3.042v10.768c0,1.68-1.362,3.042-3.042,3.042h-38.63
			c-1.68,0-3.042-1.362-3.042-3.042v-10.768C105.643,118.446,107.005,117.084,108.685,117.084z"/>
		<path class="st3" d="M147.315,135.436h-38.63c-2.504,0-4.542-2.037-4.542-4.542v-10.768c0-2.505,2.038-4.542,4.542-4.542h38.63
			c2.504,0,4.541,2.037,4.541,4.542v10.768C151.856,133.398,149.819,135.436,147.315,135.436z M108.685,118.584
			c-0.85,0-1.542,0.691-1.542,1.542v10.768c0,0.85,0.692,1.542,1.542,1.542h38.63c0.85,0,1.541-0.691,1.541-1.542v-10.768
			c0-0.851-0.691-1.542-1.541-1.542H108.685z"/>
		<path class="st14" d="M47.911,26.155c0,0,3.408,12.659,13.222,13.246c0,0-13.1,4.525-13.321,14.202
			c0,0-2.579-13.572-12.925-14.059C34.887,39.545,46.937,37.719,47.911,26.155z"/>
		<path class="st3" d="M47.811,55.103c-0.713,0-1.335-0.506-1.472-1.217c-0.024-0.125-2.495-12.418-11.523-12.843
			c-0.77-0.036-1.388-0.65-1.428-1.421c-0.04-0.77,0.511-1.444,1.273-1.561c0.441-0.068,10.894-1.817,11.754-12.032
			c0.061-0.726,0.634-1.301,1.359-1.367c0.737-0.06,1.393,0.399,1.583,1.102c0.032,0.116,3.259,11.626,11.863,12.141
			c0.714,0.042,1.298,0.583,1.396,1.292c0.098,0.708-0.319,1.388-0.994,1.622c-0.121,0.042-12.118,4.31-12.313,12.819
			c-0.018,0.767-0.61,1.396-1.374,1.46C47.895,55.101,47.852,55.103,47.811,55.103z M40.07,39.373
			c3.878,1.97,6.23,5.746,7.587,8.877c2.026-4.021,5.941-6.787,8.949-8.427c-4.134-1.843-6.783-5.651-8.334-8.723
			C46.478,35.461,43,37.969,40.07,39.373z"/>
		<path class="st14" d="M26.212,43.136c0,0,2.411,8.954,9.352,9.369c0,0-9.266,3.201-9.422,10.045c0,0-1.824-9.6-9.142-9.944
			C17,52.606,25.524,51.315,26.212,43.136z"/>
		<path class="st3" d="M26.141,64.051c-0.714,0-1.337-0.508-1.473-1.22c-0.016-0.082-1.704-8.442-7.739-8.727
			c-0.771-0.036-1.388-0.65-1.428-1.421c-0.04-0.77,0.511-1.444,1.273-1.561c0.295-0.047,7.364-1.243,7.942-8.113
			c0.061-0.726,0.635-1.303,1.36-1.368c0.724-0.065,1.392,0.399,1.582,1.102l0,0c0.021,0.079,2.228,7.92,7.994,8.265
			c0.715,0.042,1.299,0.584,1.396,1.293c0.098,0.709-0.319,1.388-0.996,1.622c-0.081,0.028-8.282,2.953-8.413,8.662
			c-0.018,0.768-0.611,1.397-1.376,1.461C26.224,64.049,26.182,64.051,26.141,64.051z M21.622,52.522
			c2.107,1.333,3.523,3.395,4.447,5.28c1.376-2.232,3.515-3.872,5.365-4.973c-2.287-1.269-3.884-3.35-4.941-5.224
			C25.319,49.893,23.478,51.481,21.622,52.522z"/>
		<path class="st14" d="M26.212,16.478c0,0,2.411,8.954,9.352,9.37c0,0-9.266,3.201-9.422,10.045c0,0-1.824-9.6-9.142-9.944
			C17,25.949,25.524,24.657,26.212,16.478z"/>
		<path class="st3" d="M26.141,37.394c-0.713,0-1.337-0.508-1.472-1.22c-0.016-0.082-1.704-8.442-7.739-8.727
			c-0.771-0.036-1.388-0.65-1.428-1.421c-0.04-0.77,0.511-1.444,1.273-1.561c0.295-0.047,7.364-1.243,7.942-8.113
			c0.061-0.726,0.635-1.303,1.36-1.368c0.729-0.059,1.392,0.399,1.582,1.101l0,0c0.021,0.079,2.228,7.92,7.994,8.265
			c0.715,0.042,1.299,0.584,1.396,1.293c0.098,0.709-0.319,1.388-0.996,1.622c-0.081,0.028-8.282,2.953-8.413,8.662
			c-0.018,0.768-0.611,1.397-1.376,1.461C26.224,37.392,26.182,37.394,26.141,37.394z M21.622,25.865
			c2.107,1.333,3.523,3.395,4.447,5.28c1.376-2.232,3.515-3.872,5.365-4.973c-2.287-1.269-3.884-3.35-4.941-5.224
			C25.319,23.235,23.478,24.824,21.622,25.865z"/>
		<path class="st7" d="M87.424,239.522v-18.268h7.839c5.071,0,9.181-4.111,9.181-9.181v-12.867c0.199-0.199,0.312-0.312,0.511-0.511
			h14.287c2.828,0,4.595-3.061,3.181-5.51l-15.296-26.494c-0.134-0.232-0.24-0.479-0.319-0.736
			c-5.829-18.84-23.453-32.498-44.246-32.336c-24.848,0.194-45.211,20.424-45.558,45.271c-0.232,16.63,8.378,31.264,21.428,39.509
			v21.122H87.424z"/>
		<path class="st3" d="M87.424,241.021c-0.829,0-1.5-0.672-1.5-1.5v-18.267c0-0.828,0.671-1.5,1.5-1.5h7.84
			c4.235,0,7.681-3.446,7.681-7.682v-12.867c0-0.398,0.158-0.779,0.439-1.061l0.512-0.512c0.281-0.281,0.663-0.439,1.06-0.439
			h14.287c0.786,0,1.489-0.406,1.882-1.087c0.393-0.681,0.393-1.493,0-2.174l-15.296-26.494c-0.188-0.324-0.34-0.675-0.454-1.044
			C99.631,147.83,82,134.925,62.574,135.119c-23.966,0.188-43.735,19.833-44.069,43.792c-0.218,15.594,7.532,29.882,20.729,38.22
			c0.435,0.275,0.699,0.754,0.699,1.268v21.122c0,0.828-0.671,1.5-1.5,1.5c-0.829,0-1.5-0.672-1.5-1.5v-20.304
			c-13.661-8.959-21.656-23.98-21.428-40.348c0.357-25.579,21.461-46.551,47.046-46.751c0.121-0.001,0.241-0.001,0.361-0.001
			c20.626,0,39.232,13.687,45.33,33.394c0.048,0.155,0.109,0.299,0.185,0.428l15.297,26.495c0.936,1.62,0.935,3.555,0,5.174
			c-0.935,1.62-2.61,2.587-4.48,2.587h-13.298v11.878c0,5.89-4.792,10.682-10.681,10.682h-6.34v16.767
			C88.924,240.35,88.252,241.021,87.424,241.021z"/>
		<circle class="st14" cx="62.358" cy="178.96" r="26.337"/>
		<path class="st3" d="M62.358,206.797c-15.35,0-27.837-12.487-27.837-27.837s12.488-27.837,27.837-27.837
			c15.349,0,27.837,12.487,27.837,27.837S77.707,206.797,62.358,206.797z M62.358,154.123c-13.695,0-24.837,11.142-24.837,24.837
			c0,13.695,11.142,24.837,24.837,24.837s24.837-11.142,24.837-24.837C87.195,165.265,76.054,154.123,62.358,154.123z"/>
		<path class="st7" d="M168.576,239.522v-18.268h-7.84c-5.071,0-9.181-4.111-9.181-9.181v-12.867
			c-0.199-0.199-0.312-0.312-0.511-0.511h-14.287c-2.828,0-4.595-3.061-3.181-5.51l15.296-26.494
			c0.134-0.232,0.24-0.479,0.319-0.736c5.829-18.84,23.453-32.498,44.246-32.336c24.849,0.194,45.211,20.424,45.558,45.271
			c0.232,16.63-8.378,31.264-21.427,39.509v21.122H168.576z"/>
		<path class="st3" d="M217.568,241.021c-0.828,0-1.5-0.672-1.5-1.5v-21.122c0-0.515,0.264-0.993,0.699-1.268
			c13.196-8.34,20.945-22.627,20.728-38.221c-0.334-23.959-20.104-43.605-44.069-43.792c-0.113-0.001-0.226-0.001-0.339-0.001
			c-19.321,0-36.751,12.82-42.463,31.28c-0.112,0.365-0.265,0.717-0.453,1.043l-15.296,26.493c-0.393,0.681-0.393,1.493,0,2.174
			c0.394,0.681,1.097,1.087,1.882,1.087h14.288c0.398,0,0.779,0.158,1.061,0.439l0.508,0.508c0.283,0.281,0.442,0.664,0.442,1.064
			v12.867c0,4.235,3.445,7.682,7.681,7.682h7.84c0.828,0,1.5,0.672,1.5,1.5v18.267c0,0.828-0.672,1.5-1.5,1.5
			c-0.828,0-1.5-0.672-1.5-1.5v-16.767h-6.34c-5.89,0-10.681-4.792-10.681-10.682v-11.878h-13.299c-1.87,0-3.545-0.967-4.48-2.587
			c-0.936-1.62-0.936-3.554,0-5.174l15.296-26.494c0.076-0.131,0.138-0.274,0.185-0.427c6.098-19.708,24.706-33.396,45.33-33.396
			c0.121,0,0.239,0,0.361,0.001c25.584,0.2,46.688,21.172,47.046,46.751c0.229,16.367-7.766,31.388-21.427,40.348v20.304
			C219.068,240.35,218.396,241.021,217.568,241.021z"/>
		<circle class="st21" cx="193.642" cy="178.96" r="26.337"/>
		<path class="st3" d="M193.642,206.797c-15.35,0-27.837-12.487-27.837-27.837s12.487-27.837,27.837-27.837
			s27.837,12.487,27.837,27.837S208.991,206.797,193.642,206.797z M193.642,154.123c-13.695,0-24.837,11.142-24.837,24.837
			c0,13.695,11.142,24.837,24.837,24.837s24.837-11.142,24.837-24.837C218.478,165.265,207.337,154.123,193.642,154.123z"/>
		<polygon class="st8" points="121.29,173.935 68.25,173.935 68.25,184.935 167.599,184.935 167.599,192.435 187.75,179.435 
			167.599,166.435 167.599,173.935 134.043,173.935 		"/>
		<path class="st3" d="M167.599,193.936c-0.246,0-0.493-0.061-0.718-0.183c-0.482-0.263-0.782-0.768-0.782-1.317v-6H68.25
			c-0.829,0-1.5-0.672-1.5-1.5v-11c0-0.828,0.671-1.5,1.5-1.5h53.04c0.829,0,1.5,0.672,1.5,1.5c0,0.828-0.671,1.5-1.5,1.5H69.75v8
			h97.849c0.828,0,1.5,0.672,1.5,1.5v4.747l15.885-10.247l-15.885-10.247v4.747c0,0.828-0.672,1.5-1.5,1.5h-33.556
			c-0.828,0-1.5-0.672-1.5-1.5c0-0.828,0.672-1.5,1.5-1.5h32.056v-6c0-0.549,0.3-1.055,0.782-1.317
			c0.482-0.263,1.069-0.241,1.531,0.057l20.151,13c0.428,0.276,0.687,0.751,0.687,1.261c0,0.51-0.259,0.984-0.687,1.261l-20.151,13
			C168.165,193.855,167.882,193.936,167.599,193.936z"/>
		<path class="st17" d="M160.89,74.085c0,8.02-2.92,15.74-8.23,21.75c-4.83,5.47-8.18,12.27-9.72,19.74h-15
			c1.54-7.47,4.89-14.27,9.72-19.74c5.31-6.01,8.23-13.73,8.23-21.75c0-9.11-3.64-17.58-10.26-23.86c-4.3-4.08-9.47-6.86-15.08-8.17
			c1.84-0.44,3.73-0.72,5.66-0.82c9.13-0.47,17.81,2.72,24.42,8.99C157.25,56.505,160.89,64.975,160.89,74.085z"/>
		<path class="st6" d="M148.86,120.125v10.77c0,0.85-0.69,1.54-1.54,1.54h-15c0.85,0,1.54-0.69,1.54-1.54v-10.77
			c0-0.85-0.69-1.54-1.54-1.54h15C148.17,118.585,148.86,119.275,148.86,120.125z"/>
	</g>
</g>
</svg>
